<?xml version="1.0" encoding="UTF-8"?>
<!DOCTYPE svg PUBLIC "-//W3C//DTD SVG 1.1//EN" "http://www.w3.org/Graphics/SVG/1.1/DTD/svg11.dtd">
<svg xmlns="http://www.w3.org/2000/svg" version="1.1" width="724px" height="724px" style="shape-rendering:geometricPrecision; text-rendering:geometricPrecision; image-rendering:optimizeQuality; fill-rule:evenodd; clip-rule:evenodd" xmlns:xlink="http://www.w3.org/1999/xlink">
<g><path style="opacity:0.993" fill="#e91d24" d="M 138.5,-0.5 C 287.167,-0.5 435.833,-0.5 584.5,-0.5C 651.938,9.4338 696.438,46.7671 718,111.5C 720.281,120.551 722.115,129.551 723.5,138.5C 723.5,287.167 723.5,435.833 723.5,584.5C 713.152,651.981 675.485,696.481 610.5,718C 601.131,720.391 591.798,722.224 582.5,723.5C 435.5,723.5 288.5,723.5 141.5,723.5C 81.4722,715.971 38.3056,684.971 12,630.5C 5.45034,614.632 1.28367,598.299 -0.5,581.5C -0.5,434.5 -0.5,287.5 -0.5,140.5C 6.24084,85.6042 33.5742,44.4375 81.5,17C 99.5981,7.79747 118.598,1.96414 138.5,-0.5 Z"/></g>
<g><path style="opacity:1" fill="#eb2125" d="M 339.5,3.5 C 471.339,0.0100037 576.505,50.6767 655,155.5C 720.056,252.851 736.056,357.851 703,470.5C 665.188,579.979 592.355,655.812 484.5,698C 365.136,737.833 253.802,722.166 150.5,651C 61.051,582.967 12.2177,492.467 4,379.5C 1.17361,256.014 47.3403,155.514 142.5,78C 200.783,33.9568 266.449,9.12347 339.5,3.5 Z"/></g>
<g><path style="opacity:1" fill="#eb2924" d="M 352.5,18.5 C 470.714,19.1937 565.881,65.8604 638,158.5C 708.743,261.108 722.743,371.108 680,488.5C 632.828,598.018 551.328,667.184 435.5,696C 311.616,719.252 204.783,687.085 115,599.5C 36.8217,513.935 6.82174,413.602 25,298.5C 50.0519,182.14 116.219,98.6396 223.5,48C 264.786,30.0925 307.786,20.2591 352.5,18.5 Z"/></g>
<g><path style="opacity:1" fill="#ec2f24" d="M 554.5,619.5 C 556.025,617.784 557.025,615.784 557.5,613.5C 558.165,611.631 558.831,609.631 559.5,607.5C 635.769,543.617 675.102,461.617 677.5,361.5C 673.823,246.497 624.49,157.33 529.5,94C 443.69,42.6683 353.19,32.5016 258,63.5C 182.978,90.5348 125.644,138.535 86,207.5C 42.2601,289.568 34.5934,374.901 63,463.5C 87.9836,534.318 132.15,589.818 195.5,630C 288.576,684.26 385.243,691.593 485.5,652C 503.592,644.458 520.592,635.125 536.5,624C 539.695,623.819 542.695,623.319 545.5,622.5C 547.565,622.483 549.565,622.15 551.5,621.5C 517.839,647.249 480.172,665.083 438.5,675C 336.215,697.414 243.549,677.08 160.5,614C 82.0355,548.56 41.3689,464.393 38.5,361.5C 42.0273,250.594 88.0273,162.427 176.5,97C 229.531,61.3318 287.031,41.4985 349,37.5C 357.333,38.8333 365.667,38.8333 374,37.5C 441.972,41.7527 504.139,64.9193 560.5,107C 654.685,185.492 694.852,285.992 681,408.5C 666.878,496.146 624.711,566.479 554.5,619.5 Z"/></g>
<g><path style="opacity:1" fill="#ec3424" d="M 557.5,613.5 C 557.666,609.486 557.499,605.486 557,601.5C 556.365,600.034 555.531,598.7 554.5,597.5C 550.202,597.799 545.868,597.799 541.5,597.5C 621.674,532.28 660.174,447.613 657,343.5C 646.309,231.229 591.475,148.729 492.5,96C 400.542,53.6649 309.542,55.6649 219.5,102C 121.433,160.237 70.0994,246.737 65.5,361.5C 70.0994,476.263 121.433,562.763 219.5,621C 309.541,667.348 400.541,669.348 492.5,627C 502.661,621.644 512.661,616.144 522.5,610.5C 527.794,618.981 535.46,622.981 545.5,622.5C 542.695,623.319 539.695,623.819 536.5,624C 520.592,635.125 503.592,644.458 485.5,652C 385.243,691.593 288.576,684.26 195.5,630C 132.15,589.818 87.9836,534.318 63,463.5C 34.5934,374.901 42.2601,289.568 86,207.5C 125.644,138.535 182.978,90.5348 258,63.5C 353.19,32.5016 443.69,42.6683 529.5,94C 624.49,157.33 673.823,246.497 677.5,361.5C 675.102,461.617 635.769,543.617 559.5,607.5C 558.831,609.631 558.165,611.631 557.5,613.5 Z"/></g>
<g><path style="opacity:1" fill="#ed3a23" d="M 541.5,597.5 C 538.22,594.612 536.22,590.945 535.5,586.5C 594.902,539.744 630.736,478.744 643,403.5C 654.794,304.87 625.294,221.037 554.5,152C 475.552,83.7345 385.218,62.4012 283.5,88C 199.069,114.137 138.235,167.304 101,247.5C 62.5047,343.722 71.1713,435.388 127,522.5C 144.982,547.981 166.482,569.981 191.5,588.5C 194.047,589.934 196.381,591.6 198.5,593.5C 237.194,621.577 280.527,638.411 328.5,644C 396.842,651.236 459.842,636.403 517.5,599.5C 519.403,602.979 521.07,606.646 522.5,610.5C 512.661,616.144 502.661,621.644 492.5,627C 400.541,669.348 309.541,667.348 219.5,621C 121.433,562.763 70.0994,476.263 65.5,361.5C 70.0994,246.737 121.433,160.237 219.5,102C 309.542,55.6649 400.542,53.6649 492.5,96C 591.475,148.729 646.309,231.229 657,343.5C 660.174,447.613 621.674,532.28 541.5,597.5 Z"/></g>
<g><path style="opacity:1" fill="#ee3e23" d="M 535.5,586.5 C 533.757,579.297 533.091,571.964 533.5,564.5C 600.311,505.497 631.478,431.163 627,341.5C 617.214,246.682 571.38,175.515 489.5,128C 476.275,121.052 462.609,115.219 448.5,110.5C 448.5,105.833 448.5,101.167 448.5,96.5C 444.821,96.2756 441.154,95.9422 437.5,95.5C 341.542,71.8262 255.542,91.3262 179.5,154C 106.977,221.552 76.8101,304.719 89,403.5C 99.8336,468.855 129.667,523.522 178.5,567.5C 181.039,575.571 185.372,582.571 191.5,588.5C 166.482,569.981 144.982,547.981 127,522.5C 71.1713,435.388 62.5047,343.722 101,247.5C 138.235,167.304 199.069,114.137 283.5,88C 385.218,62.4012 475.552,83.7345 554.5,152C 625.294,221.037 654.794,304.87 643,403.5C 630.736,478.744 594.902,539.744 535.5,586.5 Z"/></g>
<g><path style="opacity:1" fill="#ee4123" d="M 437.5,95.5 C 409.199,94.1568 383.199,101.157 359.5,116.5C 356.167,116.5 352.833,116.5 349.5,116.5C 344.527,107.896 339.527,99.2295 334.5,90.5C 328.648,93.258 322.981,96.258 317.5,99.5C 225.734,117.448 159.567,168.448 119,252.5C 83.2512,338.682 88.9179,422.016 136,502.5C 147.477,520.48 160.977,536.813 176.5,551.5C 176.777,556.886 177.444,562.219 178.5,567.5C 129.667,523.522 99.8336,468.855 89,403.5C 76.8101,304.719 106.977,221.552 179.5,154C 255.542,91.3262 341.542,71.8262 437.5,95.5 Z"/></g>
<g><path style="opacity:1" fill="#fffdfc" d="M 349.5,116.5 C 354.487,125.806 359.487,135.14 364.5,144.5C 352.157,149.663 340.824,156.33 330.5,164.5C 298.19,189.101 279.857,221.768 275.5,262.5C 275.428,273.545 275.594,284.545 276,295.5C 260.623,271.862 252.79,245.862 252.5,217.5C 252.969,185.088 262.969,156.088 282.5,130.5C 292.656,118.337 304.322,108.004 317.5,99.5C 322.981,96.258 328.648,93.258 334.5,90.5C 339.527,99.2295 344.527,107.896 349.5,116.5 Z"/></g>
<g><path style="opacity:1" fill="#fffdfc" d="M 437.5,95.5 C 441.154,95.9422 444.821,96.2756 448.5,96.5C 448.5,101.167 448.5,105.833 448.5,110.5C 449.006,126.162 449.339,141.829 449.5,157.5C 449.5,161.167 449.5,164.833 449.5,168.5C 420.092,164.359 391.759,168.026 364.5,179.5C 333.766,193.733 310.266,215.733 294,245.5C 295.73,228.98 301.063,213.647 310,199.5C 319.241,185.981 330.075,173.981 342.5,163.5C 352.572,156.947 363.239,151.447 374.5,147C 369.167,137.333 363.833,127.667 358.5,118C 359.056,117.617 359.389,117.117 359.5,116.5C 383.199,101.157 409.199,94.1568 437.5,95.5 Z"/></g>
<g><path style="opacity:1" fill="#ee4623" d="M 317.5,99.5 C 304.322,108.004 292.656,118.337 282.5,130.5C 279.779,130.963 277.112,131.629 274.5,132.5C 275.303,131.577 275.47,130.577 275,129.5C 267.084,133.599 259.584,138.266 252.5,143.5C 189.618,175.232 147.785,224.899 127,292.5C 106.382,368.797 118.382,439.463 163,504.5C 169.426,512.38 175.593,520.38 181.5,528.5C 177.785,535.698 176.118,543.365 176.5,551.5C 160.977,536.813 147.477,520.48 136,502.5C 88.9179,422.016 83.2512,338.682 119,252.5C 159.567,168.448 225.734,117.448 317.5,99.5 Z"/></g>
<g><path style="opacity:1" fill="#ee4723" d="M 448.5,110.5 C 462.609,115.219 476.275,121.052 489.5,128C 571.38,175.515 617.214,246.682 627,341.5C 631.478,431.163 600.311,505.497 533.5,564.5C 533.693,552.814 535.359,541.48 538.5,530.5C 597.059,466.27 617.559,391.27 600,305.5C 587.984,257.714 564.484,216.714 529.5,182.5C 531.097,178.811 533.097,175.311 535.5,172C 512.905,153.411 486.905,144.245 457.5,144.5C 458.331,151.131 458.664,157.798 458.5,164.5C 454.018,163.792 451.018,161.459 449.5,157.5C 449.339,141.829 449.006,126.162 448.5,110.5 Z"/></g>
<g><path style="opacity:1" fill="#fffefd" d="M 274.5,132.5 C 269.976,137.538 265.976,143.038 262.5,149C 262.957,149.414 263.291,149.914 263.5,150.5C 251.961,172.711 246.295,196.378 246.5,221.5C 245.887,250.829 252.387,278.496 266,304.5C 269.309,310.294 273.142,315.627 277.5,320.5C 287.269,333.932 299.935,343.599 315.5,349.5C 336.493,356.265 357.493,355.765 378.5,348C 386.245,344.473 393.245,339.973 399.5,334.5C 412.452,323.605 421.119,309.939 425.5,293.5C 433.321,262.587 426.321,235.587 404.5,212.5C 435.426,213.428 462.926,223.428 487,242.5C 487.333,241.833 487.667,241.167 488,240.5C 489.684,242.351 491.517,244.018 493.5,245.5C 495.071,244.025 496.405,242.358 497.5,240.5C 498.072,239.027 498.905,237.693 500,236.5C 500.943,240.496 501.776,244.496 502.5,248.5C 503.78,262.17 503.78,275.836 502.5,289.5C 500.176,304.828 496.176,319.828 490.5,334.5C 480.634,355.038 467.301,373.038 450.5,388.5C 407.652,423.877 358.986,435.377 304.5,423C 298.962,421.655 293.629,419.821 288.5,417.5C 267.454,409.105 248.787,397.105 232.5,381.5C 221.584,369.592 212.25,356.592 204.5,342.5C 198.935,329.726 194.268,316.726 190.5,303.5C 188.575,290.916 187.575,278.249 187.5,265.5C 188.236,249.82 190.903,234.486 195.5,219.5C 207.238,188.677 226.238,163.344 252.5,143.5C 259.584,138.266 267.084,133.599 275,129.5C 275.47,130.577 275.303,131.577 274.5,132.5 Z"/></g>
<g><path style="opacity:1" fill="#f05727" d="M 349.5,116.5 C 352.833,116.5 356.167,116.5 359.5,116.5C 359.389,117.117 359.056,117.617 358.5,118C 363.833,127.667 369.167,137.333 374.5,147C 363.239,151.447 352.572,156.947 342.5,163.5C 338.466,163.505 334.466,163.838 330.5,164.5C 340.824,156.33 352.157,149.663 364.5,144.5C 359.487,135.14 354.487,125.806 349.5,116.5 Z"/></g>
<g><path style="opacity:1" fill="#ef4e22" d="M 252.5,143.5 C 226.238,163.344 207.238,188.677 195.5,219.5C 166.439,252.983 149.272,291.983 144,336.5C 139.179,381.224 147.012,423.558 167.5,463.5C 164.15,463.335 160.817,463.502 157.5,464C 156.333,464.5 155.5,465.333 155,466.5C 154.333,471.167 154.333,475.833 155,480.5C 155.816,481.823 156.983,482.489 158.5,482.5C 165.678,483.167 173.011,483.833 180.5,484.5C 186.808,493.47 193.474,502.137 200.5,510.5C 192.878,515.121 186.545,521.121 181.5,528.5C 175.593,520.38 169.426,512.38 163,504.5C 118.382,439.463 106.382,368.797 127,292.5C 147.785,224.899 189.618,175.232 252.5,143.5 Z"/></g>
<g><path style="opacity:1" fill="#fffdfc" d="M 529.5,182.5 C 524.092,188.976 519.425,195.976 515.5,203.5C 511.141,209.205 507.141,215.205 503.5,221.5C 499.932,226.291 496.598,231.291 493.5,236.5C 463.751,210.814 429.418,200.481 390.5,205.5C 355.412,210.78 327.579,227.78 307,256.5C 308.495,251.149 310.328,245.816 312.5,240.5C 323.714,219.613 339.38,202.78 359.5,190C 365.053,187.392 370.387,184.559 375.5,181.5C 402.734,171.247 430.401,169.914 458.5,177.5C 458.5,173.167 458.5,168.833 458.5,164.5C 458.664,157.798 458.331,151.131 457.5,144.5C 486.905,144.245 512.905,153.411 535.5,172C 533.097,175.311 531.097,178.811 529.5,182.5 Z"/></g>
<g><path style="opacity:1" fill="#f9b19c" d="M 258.5,151.5 C 259.239,151.369 259.906,151.536 260.5,152C 259.234,153.983 257.568,154.983 255.5,155C 256.71,153.961 257.71,152.794 258.5,151.5 Z"/></g>
<g><path style="opacity:1" fill="#f1602b" d="M 449.5,157.5 C 451.018,161.459 454.018,163.792 458.5,164.5C 458.5,168.833 458.5,173.167 458.5,177.5C 430.401,169.914 402.734,171.247 375.5,181.5C 371.727,180.897 368.061,180.23 364.5,179.5C 391.759,168.026 420.092,164.359 449.5,168.5C 449.5,164.833 449.5,161.167 449.5,157.5 Z"/></g>
<g><path style="opacity:1" fill="#ef4e22" d="M 529.5,182.5 C 564.484,216.714 587.984,257.714 600,305.5C 617.559,391.27 597.059,466.27 538.5,530.5C 540.139,522.043 544.639,515.71 552,511.5C 552.938,508.12 552.271,505.12 550,502.5C 546.59,498.584 542.757,495.251 538.5,492.5C 539.738,489.262 541.404,486.262 543.5,483.5C 551.174,483.666 558.841,483.5 566.5,483C 567,482.5 567.5,482 568,481.5C 568.667,476.167 568.667,470.833 568,465.5C 567.5,465 567,464.5 566.5,464C 562.848,463.501 559.182,463.335 555.5,463.5C 582.414,411.094 587.914,356.427 572,299.5C 564.551,273.935 552.884,250.602 537,229.5C 529.598,220.941 522.432,212.274 515.5,203.5C 519.425,195.976 524.092,188.976 529.5,182.5 Z"/></g>
<g><path style="opacity:1" fill="#f05927" d="M 282.5,130.5 C 262.969,156.088 252.969,185.088 252.5,217.5C 250.772,219.226 248.772,220.559 246.5,221.5C 246.295,196.378 251.961,172.711 263.5,150.5C 263.291,149.914 262.957,149.414 262.5,149C 265.976,143.038 269.976,137.538 274.5,132.5C 277.112,131.629 279.779,130.963 282.5,130.5 Z"/></g>
<g><path style="opacity:1" fill="#f26528" d="M 493.5,236.5 C 493.833,238.833 495.167,240.167 497.5,240.5C 496.405,242.358 495.071,244.025 493.5,245.5C 491.517,244.018 489.684,242.351 488,240.5C 487.667,241.167 487.333,241.833 487,242.5C 462.926,223.428 435.426,213.428 404.5,212.5C 405.681,211.603 407.681,211.103 410.5,211C 403.711,209.139 397.045,207.306 390.5,205.5C 429.418,200.481 463.751,210.814 493.5,236.5 Z"/></g>
<g><path style="opacity:1" fill="#f05522" d="M 515.5,203.5 C 522.432,212.274 529.598,220.941 537,229.5C 552.884,250.602 564.551,273.935 572,299.5C 587.914,356.427 582.414,411.094 555.5,463.5C 548.167,463.5 540.833,463.5 533.5,463.5C 570.166,396.812 570.666,329.812 535,262.5C 526.168,247.508 515.668,233.841 503.5,221.5C 507.141,215.205 511.141,209.205 515.5,203.5 Z"/></g>
<g><path style="opacity:1" fill="#f26625" d="M 342.5,163.5 C 330.075,173.981 319.241,185.981 310,199.5C 301.063,213.647 295.73,228.98 294,245.5C 310.266,215.733 333.766,193.733 364.5,179.5C 368.061,180.23 371.727,180.897 375.5,181.5C 370.387,184.559 365.053,187.392 359.5,190C 339.38,202.78 323.714,219.613 312.5,240.5C 298.751,245.538 286.418,252.871 275.5,262.5C 279.857,221.768 298.19,189.101 330.5,164.5C 334.466,163.838 338.466,163.505 342.5,163.5 Z"/></g>
<g><path style="opacity:1" fill="#f05522" d="M 195.5,219.5 C 190.903,234.486 188.236,249.82 187.5,265.5C 158.187,320.776 154.687,377.776 177,436.5C 180.986,445.805 185.486,454.805 190.5,463.5C 182.833,463.5 175.167,463.5 167.5,463.5C 147.012,423.558 139.179,381.224 144,336.5C 149.272,291.983 166.439,252.983 195.5,219.5 Z"/></g>
<g><path style="opacity:1" fill="#f15a21" d="M 503.5,221.5 C 515.668,233.841 526.168,247.508 535,262.5C 570.666,329.812 570.166,396.812 533.5,463.5C 526.167,463.5 518.833,463.5 511.5,463.5C 545.777,409.5 551.61,352.5 529,292.5C 522.417,276.308 513.583,261.641 502.5,248.5C 501.776,244.496 500.943,240.496 500,236.5C 498.905,237.693 498.072,239.027 497.5,240.5C 495.167,240.167 493.833,238.833 493.5,236.5C 496.598,231.291 499.932,226.291 503.5,221.5 Z"/></g>
<g><path style="opacity:1" fill="#f26c21" d="M 390.5,205.5 C 397.045,207.306 403.711,209.139 410.5,211C 407.681,211.103 405.681,211.603 404.5,212.5C 426.321,235.587 433.321,262.587 425.5,293.5C 388.553,263.458 349.553,260.624 308.5,285C 295.808,294.853 285.474,306.687 277.5,320.5C 273.142,315.627 269.309,310.294 266,304.5C 252.387,278.496 245.887,250.829 246.5,221.5C 248.772,220.559 250.772,219.226 252.5,217.5C 252.79,245.862 260.623,271.862 276,295.5C 275.594,284.545 275.428,273.545 275.5,262.5C 286.418,252.871 298.751,245.538 312.5,240.5C 310.328,245.816 308.495,251.149 307,256.5C 327.579,227.78 355.412,210.78 390.5,205.5 Z"/></g>
<g><path style="opacity:1" fill="#f16021" d="M 502.5,248.5 C 513.583,261.641 522.417,276.308 529,292.5C 551.61,352.5 545.777,409.5 511.5,463.5C 502.167,463.5 492.833,463.5 483.5,463.5C 524.36,409.282 530.694,351.282 502.5,289.5C 503.78,275.836 503.78,262.17 502.5,248.5 Z"/></g>
<g><path style="opacity:1" fill="#f15a21" d="M 187.5,265.5 C 187.575,278.249 188.575,290.916 190.5,303.5C 172.609,360.38 179.942,413.713 212.5,463.5C 205.167,463.5 197.833,463.5 190.5,463.5C 185.486,454.805 180.986,445.805 177,436.5C 154.687,377.776 158.187,320.776 187.5,265.5 Z"/></g>
<g><path style="opacity:1" fill="#f37220" d="M 425.5,293.5 C 421.119,309.939 412.452,323.605 399.5,334.5C 380.814,313.301 359.148,309.801 334.5,324C 331,327.5 327.5,331 324,334.5C 321.168,338.664 319.001,343.164 317.5,348C 317.164,349.03 316.497,349.53 315.5,349.5C 299.935,343.599 287.269,333.932 277.5,320.5C 285.474,306.687 295.808,294.853 308.5,285C 349.553,260.624 388.553,263.458 425.5,293.5 Z"/></g>
<g><path style="opacity:1" fill="#f26621" d="M 502.5,289.5 C 530.694,351.282 524.36,409.282 483.5,463.5C 470.5,463.5 457.5,463.5 444.5,463.5C 483.609,429.184 498.943,386.184 490.5,334.5C 496.176,319.828 500.176,304.828 502.5,289.5 Z"/></g>
<g><path style="opacity:1" fill="#f16021" d="M 190.5,303.5 C 194.268,316.726 198.935,329.726 204.5,342.5C 199.976,387.913 211.976,428.246 240.5,463.5C 231.167,463.5 221.833,463.5 212.5,463.5C 179.942,413.713 172.609,360.38 190.5,303.5 Z"/></g>
<g><path style="opacity:1" fill="#f47821" d="M 399.5,334.5 C 393.245,339.973 386.245,344.473 378.5,348C 357.493,355.765 336.493,356.265 315.5,349.5C 316.497,349.53 317.164,349.03 317.5,348C 319.001,343.164 321.168,338.664 324,334.5C 327.5,331 331,327.5 334.5,324C 359.148,309.801 380.814,313.301 399.5,334.5 Z"/></g>
<g><path style="opacity:1" fill="#f36d21" d="M 490.5,334.5 C 498.943,386.184 483.609,429.184 444.5,463.5C 426.497,463.333 408.497,463.5 390.5,464C 390,464.5 389.5,465 389,465.5C 388.667,472.167 388.333,478.833 388,485.5C 377.84,473.66 365.34,465.493 350.5,461C 331.178,458.049 315.178,463.882 302.5,478.5C 301.609,477.89 300.609,477.557 299.5,477.5C 299.665,473.818 299.499,470.152 299,466.5C 298.167,465.667 297.333,464.833 296.5,464C 290.509,463.501 284.509,463.334 278.5,463.5C 253.32,441.817 237.986,414.484 232.5,381.5C 248.787,397.105 267.454,409.105 288.5,417.5C 298.378,431.465 311.378,441.631 327.5,448C 368.347,461.497 403.514,452.663 433,421.5C 440.926,411.651 446.759,400.651 450.5,388.5C 467.301,373.038 480.634,355.038 490.5,334.5 Z"/></g>
<g><path style="opacity:1" fill="#f26621" d="M 204.5,342.5 C 212.25,356.592 221.584,369.592 232.5,381.5C 237.986,414.484 253.32,441.817 278.5,463.5C 265.833,463.5 253.167,463.5 240.5,463.5C 211.976,428.246 199.976,387.913 204.5,342.5 Z"/></g>
<g><path style="opacity:1" fill="#f37221" d="M 450.5,388.5 C 446.759,400.651 440.926,411.651 433,421.5C 403.514,452.663 368.347,461.497 327.5,448C 311.378,441.631 298.378,431.465 288.5,417.5C 293.629,419.821 298.962,421.655 304.5,423C 358.986,435.377 407.652,423.877 450.5,388.5 Z"/></g>
<g><path style="opacity:1" fill="#fffcfc" d="M 444.5,463.5 C 457.5,463.5 470.5,463.5 483.5,463.5C 492.833,463.5 502.167,463.5 511.5,463.5C 518.833,463.5 526.167,463.5 533.5,463.5C 540.833,463.5 548.167,463.5 555.5,463.5C 559.182,463.335 562.848,463.501 566.5,464C 567,464.5 567.5,465 568,465.5C 568.667,470.833 568.667,476.167 568,481.5C 567.5,482 567,482.5 566.5,483C 558.841,483.5 551.174,483.666 543.5,483.5C 519.167,483.5 494.833,483.5 470.5,483.5C 470.333,495.505 470.5,507.505 471,519.5C 485.443,504.219 502.609,493.219 522.5,486.5C 528.063,487.951 533.397,489.951 538.5,492.5C 542.757,495.251 546.59,498.584 550,502.5C 552.271,505.12 552.938,508.12 552,511.5C 544.639,515.71 540.139,522.043 538.5,530.5C 535.359,541.48 533.693,552.814 533.5,564.5C 533.091,571.964 533.757,579.297 535.5,586.5C 536.22,590.945 538.22,594.612 541.5,597.5C 545.868,597.799 550.202,597.799 554.5,597.5C 555.531,598.7 556.365,600.034 557,601.5C 557.499,605.486 557.666,609.486 557.5,613.5C 557.025,615.784 556.025,617.784 554.5,619.5C 553.5,620.167 552.5,620.833 551.5,621.5C 549.565,622.15 547.565,622.483 545.5,622.5C 535.46,622.981 527.794,618.981 522.5,610.5C 521.07,606.646 519.403,602.979 517.5,599.5C 516.008,593.2 514.675,586.866 513.5,580.5C 512.257,572.217 511.59,563.884 511.5,555.5C 510.739,545.199 510.239,534.866 510,524.5C 490.285,536.734 478.785,554.4 475.5,577.5C 474.996,580.453 473.996,583.286 472.5,586C 469.406,586.251 466.406,585.751 463.5,584.5C 457.685,581.663 451.685,578.996 445.5,576.5C 444.509,572.555 444.176,568.555 444.5,564.5C 444.5,550.5 444.5,536.5 444.5,522.5C 444.5,509.5 444.5,496.5 444.5,483.5C 434.5,483.5 424.5,483.5 414.5,483.5C 414.5,500.5 414.5,517.5 414.5,534.5C 414.5,547.833 414.5,561.167 414.5,574.5C 414.5,583.167 414.5,591.833 414.5,600.5C 414.5,607.833 414.5,615.167 414.5,622.5C 414.662,624.527 414.495,626.527 414,628.5C 413.161,629.624 411.994,630.291 410.5,630.5C 406.046,628.773 401.713,626.773 397.5,624.5C 394.709,622.265 391.709,620.265 388.5,618.5C 388.667,582.832 388.5,547.165 388,511.5C 381.403,500.782 372.903,491.949 362.5,485C 353.563,481.349 344.897,481.682 336.5,486C 330.272,492.047 329.938,498.38 335.5,505C 336.333,505.167 337.167,505.333 338,505.5C 345.335,502.316 352.835,501.816 360.5,504C 366.976,507.824 371.976,512.991 375.5,519.5C 380.931,536.277 377.598,551.111 365.5,564C 355.157,572.05 343.491,574.716 330.5,572C 317.75,567.256 310.084,558.256 307.5,545C 308.404,541.455 309.404,537.955 310.5,534.5C 311.117,532.32 312.117,530.32 313.5,528.5C 316.144,531.109 318.311,534.109 320,537.5C 321.579,539.041 323.413,540.208 325.5,541C 335.459,543.119 344.292,540.953 352,534.5C 355.807,526.113 353.307,521.113 344.5,519.5C 331.936,525.23 319.603,524.73 307.5,518C 298.725,510.096 295.559,500.263 298,488.5C 299.254,484.996 300.754,481.663 302.5,478.5C 315.178,463.882 331.178,458.049 350.5,461C 365.34,465.493 377.84,473.66 388,485.5C 388.333,478.833 388.667,472.167 389,465.5C 389.5,465 390,464.5 390.5,464C 408.497,463.5 426.497,463.333 444.5,463.5 Z"/></g>
<g><path style="opacity:1" fill="#fffdfc" d="M 167.5,463.5 C 175.167,463.5 182.833,463.5 190.5,463.5C 197.833,463.5 205.167,463.5 212.5,463.5C 221.833,463.5 231.167,463.5 240.5,463.5C 253.167,463.5 265.833,463.5 278.5,463.5C 284.509,463.334 290.509,463.501 296.5,464C 297.333,464.833 298.167,465.667 299,466.5C 299.499,470.152 299.665,473.818 299.5,477.5C 299.607,479.903 298.607,481.736 296.5,483C 293.183,483.498 289.85,483.665 286.5,483.5C 286.5,532.167 286.5,580.833 286.5,629.5C 285.294,632.139 283.294,632.972 280.5,632C 274.085,627.709 267.585,623.542 261,619.5C 260.5,608.505 260.333,597.505 260.5,586.5C 258.1,569.636 250.433,555.802 237.5,545C 228.99,539.277 219.657,537.277 209.5,539C 199.126,545.129 196.792,553.463 202.5,564C 211.58,570.62 219.746,569.787 227,561.5C 227.333,557.167 227.667,552.833 228,548.5C 237.535,552.033 243.535,558.7 246,568.5C 246.634,571.555 246.468,574.555 245.5,577.5C 240.23,591.074 230.23,597.408 215.5,596.5C 209.57,596.858 203.903,595.858 198.5,593.5C 196.381,591.6 194.047,589.934 191.5,588.5C 185.372,582.571 181.039,575.571 178.5,567.5C 177.444,562.219 176.777,556.886 176.5,551.5C 176.118,543.365 177.785,535.698 181.5,528.5C 186.545,521.121 192.878,515.121 200.5,510.5C 225.658,506.078 244.992,514.744 258.5,536.5C 258.56,537.043 258.893,537.376 259.5,537.5C 260.827,519.004 260.827,500.671 259.5,482.5C 225.833,482.5 192.167,482.5 158.5,482.5C 156.983,482.489 155.816,481.823 155,480.5C 154.333,475.833 154.333,471.167 155,466.5C 155.5,465.333 156.333,464.5 157.5,464C 160.817,463.502 164.15,463.335 167.5,463.5 Z"/></g>
<g><path style="opacity:1" fill="#f15c25" d="M 158.5,482.5 C 192.167,482.5 225.833,482.5 259.5,482.5C 259.83,500.674 259.497,518.674 258.5,536.5C 244.992,514.744 225.658,506.078 200.5,510.5C 193.474,502.137 186.808,493.47 180.5,484.5C 173.011,483.833 165.678,483.167 158.5,482.5 Z"/></g>
<g><path style="opacity:1" fill="#f15d23" d="M 543.5,483.5 C 541.404,486.262 539.738,489.262 538.5,492.5C 533.397,489.951 528.063,487.951 522.5,486.5C 502.609,493.219 485.443,504.219 471,519.5C 470.5,507.505 470.333,495.505 470.5,483.5C 494.833,483.5 519.167,483.5 543.5,483.5 Z"/></g>
<g><path style="opacity:1" fill="#f26b28" d="M 388.5,618.5 C 387.514,614.03 387.181,609.363 387.5,604.5C 387.5,596.167 387.5,587.833 387.5,579.5C 387.5,558.833 387.5,538.167 387.5,517.5C 383.439,518.006 379.439,518.673 375.5,519.5C 371.976,512.991 366.976,507.824 360.5,504C 352.835,501.816 345.335,502.316 338,505.5C 337.167,505.333 336.333,505.167 335.5,505C 329.938,498.38 330.272,492.047 336.5,486C 344.897,481.682 353.563,481.349 362.5,485C 372.903,491.949 381.403,500.782 388,511.5C 388.5,547.165 388.667,582.832 388.5,618.5 Z"/></g>
<g><path style="opacity:1" fill="#f16221" d="M 444.5,522.5 C 434.728,527.09 424.728,531.09 414.5,534.5C 414.5,517.5 414.5,500.5 414.5,483.5C 424.5,483.5 434.5,483.5 444.5,483.5C 444.5,496.5 444.5,509.5 444.5,522.5 Z"/></g>
<g><path style="opacity:1" fill="#f16528" d="M 299.5,477.5 C 300.609,477.557 301.609,477.89 302.5,478.5C 300.754,481.663 299.254,484.996 298,488.5C 295.559,500.263 298.725,510.096 307.5,518C 319.603,524.73 331.936,525.23 344.5,519.5C 353.307,521.113 355.807,526.113 352,534.5C 344.292,540.953 335.459,543.119 325.5,541C 323.413,540.208 321.579,539.041 320,537.5C 318.311,534.109 316.144,531.109 313.5,528.5C 312.117,530.32 311.117,532.32 310.5,534.5C 302.678,532.726 295.178,530.059 288,526.5C 287.5,540.163 287.333,553.829 287.5,567.5C 287.5,576.5 287.5,585.5 287.5,594.5C 287.5,601.833 287.5,609.167 287.5,616.5C 287.818,621.032 287.485,625.366 286.5,629.5C 286.5,580.833 286.5,532.167 286.5,483.5C 289.85,483.665 293.183,483.498 296.5,483C 298.607,481.736 299.607,479.903 299.5,477.5 Z"/></g>
<g><path style="opacity:1" fill="#f8ae91" d="M 259.5,482.5 C 260.827,500.671 260.827,519.004 259.5,537.5C 258.893,537.376 258.56,537.043 258.5,536.5C 259.497,518.674 259.83,500.674 259.5,482.5 Z"/></g>
<g><path style="opacity:1" fill="#ef4f23" d="M 511.5,555.5 C 500.139,563.848 488.139,571.182 475.5,577.5C 478.785,554.4 490.285,536.734 510,524.5C 510.239,534.866 510.739,545.199 511.5,555.5 Z"/></g>
<g><path style="opacity:1" fill="#ef5026" d="M 260.5,586.5 C 256.42,582.28 251.42,579.28 245.5,577.5C 246.468,574.555 246.634,571.555 246,568.5C 243.535,558.7 237.535,552.033 228,548.5C 227.667,552.833 227.333,557.167 227,561.5C 219.746,569.787 211.58,570.62 202.5,564C 196.792,553.463 199.126,545.129 209.5,539C 219.657,537.277 228.99,539.277 237.5,545C 250.433,555.802 258.1,569.636 260.5,586.5 Z"/></g>
<g><path style="opacity:1" fill="#f05721" d="M 444.5,522.5 C 444.5,536.5 444.5,550.5 444.5,564.5C 434.699,568.434 424.699,571.767 414.5,574.5C 414.5,561.167 414.5,547.833 414.5,534.5C 424.728,531.09 434.728,527.09 444.5,522.5 Z"/></g>
<g><path style="opacity:1" fill="#f05823" d="M 387.5,579.5 C 353.198,583.137 319.865,579.137 287.5,567.5C 287.333,553.829 287.5,540.163 288,526.5C 295.178,530.059 302.678,532.726 310.5,534.5C 309.404,537.955 308.404,541.455 307.5,545C 310.084,558.256 317.75,567.256 330.5,572C 343.491,574.716 355.157,572.05 365.5,564C 377.598,551.111 380.931,536.277 375.5,519.5C 379.439,518.673 383.439,518.006 387.5,517.5C 387.5,538.167 387.5,558.833 387.5,579.5 Z"/></g>
<g><path style="opacity:1" fill="#ee4723" d="M 511.5,555.5 C 511.59,563.884 512.257,572.217 513.5,580.5C 483.242,600.705 450.242,614.705 414.5,622.5C 414.5,615.167 414.5,607.833 414.5,600.5C 431.239,596.365 447.573,591.031 463.5,584.5C 466.406,585.751 469.406,586.251 472.5,586C 473.996,583.286 474.996,580.453 475.5,577.5C 488.139,571.182 500.139,563.848 511.5,555.5 Z"/></g>
<g><path style="opacity:1" fill="#ef4e22" d="M 444.5,564.5 C 444.176,568.555 444.509,572.555 445.5,576.5C 451.685,578.996 457.685,581.663 463.5,584.5C 447.573,591.031 431.239,596.365 414.5,600.5C 414.5,591.833 414.5,583.167 414.5,574.5C 424.699,571.767 434.699,568.434 444.5,564.5 Z"/></g>
<g><path style="opacity:1" fill="#ef4e22" d="M 287.5,567.5 C 319.865,579.137 353.198,583.137 387.5,579.5C 387.5,587.833 387.5,596.167 387.5,604.5C 353.468,608.423 320.134,605.089 287.5,594.5C 287.5,585.5 287.5,576.5 287.5,567.5 Z"/></g>
<g><path style="opacity:1" fill="#ee4023" d="M 245.5,577.5 C 251.42,579.28 256.42,582.28 260.5,586.5C 260.333,597.505 260.5,608.505 261,619.5C 267.585,623.542 274.085,627.709 280.5,632C 283.294,632.972 285.294,632.139 286.5,629.5C 287.485,625.366 287.818,621.032 287.5,616.5C 323.678,627.461 360.345,630.127 397.5,624.5C 401.713,626.773 406.046,628.773 410.5,630.5C 411.994,630.291 413.161,629.624 414,628.5C 414.495,626.527 414.662,624.527 414.5,622.5C 450.242,614.705 483.242,600.705 513.5,580.5C 514.675,586.866 516.008,593.2 517.5,599.5C 459.842,636.403 396.842,651.236 328.5,644C 280.527,638.411 237.194,621.577 198.5,593.5C 203.903,595.858 209.57,596.858 215.5,596.5C 230.23,597.408 240.23,591.074 245.5,577.5 Z"/></g>
<g><path style="opacity:1" fill="#ee4623" d="M 287.5,594.5 C 320.134,605.089 353.468,608.423 387.5,604.5C 387.181,609.363 387.514,614.03 388.5,618.5C 391.709,620.265 394.709,622.265 397.5,624.5C 360.345,630.127 323.678,627.461 287.5,616.5C 287.5,609.167 287.5,601.833 287.5,594.5 Z"/></g>
</svg>
